<svg width="499.987" height="500.004" xmlns="http://www.w3.org/2000/svg">

 <g>
  <title>background</title>
  <rect fill="none" id="canvas_background" height="402" width="582" y="-1" x="-1"/>
 </g>
 <g>
  <title>Layer 1</title>
  <path id="svg_2" fill="#448caa" d="m249.998,500.004c-138.067,0 -249.998,-111.931 -249.998,-250.006c0,-138.067 111.931,-249.998 249.998,-249.998s249.989,111.931 249.989,249.998c0,138.075 -111.922,250.006 -249.989,250.006z"/>
  <path fill="#FFFFFF" id="_x32_9" d="m203.314,256.771c9.026,-9.03 13.543,-19.645 13.543,-31.846c0,-12.201 -4.517,-22.773 -13.543,-31.722c-9.03,-8.945 -19.645,-13.419 -31.846,-13.419c-12.201,0 -22.773,4.474 -31.718,13.419c-8.949,8.949 -13.423,19.521 -13.423,31.722c0,12.201 4.474,22.816 13.423,31.846c8.945,9.026 19.517,13.539 31.718,13.539c12.201,0 22.816,-4.513 31.846,-13.539zm-58.221,-31.846c0,-7.632 2.564,-13.88 7.697,-18.752c5.137,-4.871 11.38,-7.312 18.752,-7.312c7.637,0 13.88,2.513 18.76,7.513c4.863,4.996 7.303,11.188 7.303,18.551c0,7.372 -2.44,13.56 -7.303,18.551c-4.881,5.008 -11.124,7.513 -18.76,7.513c-7.372,0 -13.616,-2.504 -18.752,-7.513c-5.133,-4.991 -7.697,-11.179 -7.697,-18.551zm201.485,54.453c-9.03,-8.787 -19.645,-13.18 -31.846,-13.18c-12.363,0 -22.936,4.393 -31.717,13.18c-8.786,8.782 -13.175,19.196 -13.175,31.23c0,12.363 4.389,23.102 13.175,32.209c8.782,9.107 19.355,13.662 31.717,13.662c12.201,0 22.816,-4.555 31.846,-13.662c9.03,-9.107 13.543,-19.846 13.543,-32.209c0,-12.034 -4.513,-22.448 -13.543,-31.23zm-12.919,49.931c-5.132,5.397 -11.525,8.09 -19.153,8.09c-7.372,0 -13.491,-2.693 -18.359,-8.09c-4.872,-5.397 -7.304,-11.782 -7.304,-19.153c0,-7.107 2.432,-13.026 7.304,-17.765c4.867,-4.739 10.987,-7.107 18.359,-7.107c7.367,0 13.679,2.367 18.953,7.107c5.265,4.739 7.897,10.658 7.897,17.765c0,7.371 -2.564,13.756 -7.697,19.153zm-42.444,-131.777l-73.123,157.302c-1.192,2.564 -4.483,4.654 -7.312,4.641l-24.85,-0.12c-2.829,-0.017 -4.158,-2.119 -2.953,-4.679l79.538,-168.763l-20.004,-8.098c-4.154,-1.68 -4.346,-4.842 -0.436,-7.026l52.286,-29.171c3.914,-2.184 8.171,-0.462 9.461,3.829l17.26,57.333c1.295,4.29 -1.047,6.423 -5.201,4.739l-24.666,-9.987z"/>
 </g>
</svg>