<svg width="128" height="128" xmlns="http://www.w3.org/2000/svg">

 <g>
  <title>background</title>
  <rect fill="none" id="canvas_background" height="402" width="582" y="-1" x="-1"/>
 </g>
 <g>
  <title>Layer 1</title>
  <path id="svg_3" fill="#004d6f" d="m108,8l-8,0l0,-4c0,-2.211 -1.789,-4 -4,-4s-4,1.789 -4,4l0,4l-8,0l0,-4c0,-2.211 -1.789,-4 -4,-4s-4,1.789 -4,4l0,4l-8,0l0,-4c0,-2.211 -1.789,-4 -4,-4s-4,1.789 -4,4l0,4l-8,0l0,-4c0,-2.211 -1.789,-4 -4,-4s-4,1.789 -4,4l0,4l-8,0l0,-4c0,-2.211 -1.789,-4 -4,-4s-4,1.789 -4,4l0,4l-8,0c-8.836,0 -16,7.164 -16,16l0,88c0,8.836 7.164,16 16,16l88,0c8.836,0 16,-7.164 16,-16l0,-88c0,-8.836 -7.164,-16 -16,-16zm8,104c0,4.414 -3.59,8 -8,8l-88,0c-4.412,0 -8,-3.586 -8,-8l0,-88c0,-4.416 3.588,-8 8,-8l8,0l0,4c0,2.211 1.789,4 4,4s4,-1.789 4,-4l0,-4l8,0l0,4c0,2.211 1.789,4 4,4s4,-1.789 4,-4l0,-4l8,0l0,4c0,2.211 1.789,4 4,4s4,-1.789 4,-4l0,-4l8,0l0,4c0,2.211 1.789,4 4,4s4,-1.789 4,-4l0,-4l8,0l0,4c0,2.211 1.789,4 4,4s4,-1.789 4,-4l0,-4l8,0c4.41,0 8,3.584 8,8l0,88z"/>
  <path id="svg_4" fill="#004d6f" d="m20,40l0,72l88,0l0,-72l-88,0zm64,8l0,8l-8,0l0,-8l8,0zm-32,24l-8,0l0,-8l8,0l0,8zm8,-8l8,0l0,8l-8,0l0,-8zm-8,16l0,8l-8,0l0,-8l8,0zm8,0l8,0l0,8l-8,0l0,-8zm16,0l8,0l0,8l-8,0l0,-8zm0,-8l0,-8l8,0l0,8l-8,0zm-8,-24l0,8l-8,0l0,-8l8,0zm-16,0l0,8l-8,0l0,-8l8,0zm-24,0l8,0l0,8l-8,0l0,-8zm0,16l8,0l0,8l-8,0l0,-8zm0,16l8,0l0,8l-8,0l0,-8zm0,24l0,-8l8,0l0,8l-8,0zm16,0l0,-8l8,0l0,8l-8,0zm16,0l0,-8l8,0l0,8l-8,0zm16,0l0,-8l8,0l0,8l-8,0zm24,0l-8,0l0,-8l8,0l0,8zm0,-16l-8,0l0,-8l8,0l0,8zm0,-16l-8,0l0,-8l8,0l0,8zm0,-16l-8,0l0,-8l8,0l0,8z"/>
 </g>
</svg>