<svg width="200" height="200" xmlns="http://www.w3.org/2000/svg">

 <g>
  <title>background</title>
  <rect fill="none" id="canvas_background" height="402" width="582" y="-1" x="-1"/>
 </g>
 <g>
  <title>Layer 1</title>
  <path id="svg_2" fill="#004d6f" d="m98.176,81.001c0,1.006 0.819,1.823 1.824,1.823l43.086,0c1,0 1.825,-0.817 1.825,-1.823l0,-1.153c0,-1.004 -0.825,-1.828 -1.825,-1.828l-43.086,0c-1.004,0 -1.824,0.823 -1.824,1.828l0,1.153z"/>
  <path id="svg_3" fill="#004d6f" d="m100,69.118l43.086,0c1,0 1.825,-0.823 1.825,-1.823l0,-1.157c0,-1 -0.825,-1.824 -1.825,-1.824l-43.086,0c-1.004,0 -1.824,0.823 -1.824,1.824l0,1.157c0,0.999 0.82,1.823 1.824,1.823z"/>
  <path id="svg_4" fill="#004d6f" d="m156.999,14.894l-24.018,0c0.004,0.152 0.021,0.301 0.021,0.453l0,13.225l19.439,0c2.509,0 4.558,2.047 4.558,4.558l0,116.716l-36.472,36.476l-72.968,0c-2.509,0 -4.558,-2.053 -4.558,-4.558l0,-148.635c0,-2.511 2.049,-4.558 4.558,-4.558l19.444,0l0,-13.224c0,-0.152 0.012,-0.301 0.02,-0.453l-24.023,0c-7.522,0 -13.678,6.156 -13.678,13.678l0,157.75c0.001,7.522 6.157,13.678 13.678,13.678l113.999,0c7.526,0 13.679,-6.156 13.679,-13.679l0,-157.749c0,-7.523 -6.153,-13.678 -13.679,-13.678z"/>
  <path id="svg_5" fill="#004d6f" d="m55.624,94.317c0,0.999 0.821,1.822 1.826,1.822l85.637,0c1,0 1.825,-0.823 1.825,-1.822l0,-1.159c0,-1 -0.825,-1.824 -1.825,-1.824l-85.638,0c-1.004,0 -1.826,0.823 -1.826,1.824l0,1.159l0.001,0z"/>
  <path id="svg_6" fill="#004d6f" d="m57.449,82.824l28.57,0c1.004,0 1.826,-0.817 1.826,-1.823l0,-28.57c0,-1.006 -0.821,-1.824 -1.826,-1.824l-28.57,0c-1.004,0 -1.826,0.817 -1.826,1.824l0,28.57c0.001,1.006 0.822,1.823 1.826,1.823z"/>
  <path id="svg_7" fill="#004d6f" d="m125.085,149.846c-1.162,0 -2.334,0.447 -3.224,1.338c-0.891,0.886 -1.334,2.057 -1.334,3.224l0,25.466l30.027,-30.027l-25.469,0l0,-0.001z"/>
  <path id="svg_8" fill="#004d6f" d="m55.624,108.022c0,1.004 0.821,1.821 1.826,1.821l85.637,0c1,0 1.825,-0.817 1.825,-1.821l0,-1.15c0,-1.009 -0.825,-1.83 -1.825,-1.83l-85.638,0c-1.004,0 -1.826,0.821 -1.826,1.83l0,1.15l0.001,0z"/>
  <path id="svg_9" fill="#004d6f" d="m143.086,50.607l-43.086,0c-1.004,0 -1.824,0.817 -1.824,1.824l0,1.152c0,1.004 0.819,1.828 1.824,1.828l43.086,0c1,0 1.825,-0.823 1.825,-1.828l0,-1.152c0,-1.006 -0.825,-1.824 -1.825,-1.824z"/>
  <path id="svg_10" fill="#004d6f" d="m55.624,121.729c0,1.004 0.821,1.825 1.826,1.825l85.637,0c1,0 1.825,-0.821 1.825,-1.825l0,-1.151c0,-1.004 -0.825,-1.825 -1.825,-1.825l-85.638,0c-1.004,0 -1.826,0.821 -1.826,1.825l0,1.151l0.001,0z"/>
  <path id="svg_11" fill="#004d6f" d="m55.624,135.436c0,1.004 0.821,1.83 1.826,1.83l40.992,0c1.004,0 1.825,-0.826 1.825,-1.83l0,-1.15c0,-1.001 -0.821,-1.826 -1.825,-1.826l-40.993,0c-1.004,0 -1.826,0.825 -1.826,1.826l0,1.15l0.001,0z"/>
  <path id="svg_12" fill="#004d6f" d="m73.386,31.761l53.232,0c0.464,0 0.927,-0.181 1.285,-0.541c0.355,-0.354 0.54,-0.817 0.54,-1.281l0,-14.592c0,-1.63 -0.632,-3.263 -1.874,-4.511c-1.246,-1.248 -2.879,-1.87 -4.511,-1.87l-13.095,0c0.001,-4.953 -4.011,-8.966 -8.963,-8.966c-4.95,0 -8.963,4.013 -8.963,8.966l-13.093,0c-1.634,0 -3.265,0.622 -4.515,1.87c-1.238,1.249 -1.871,2.881 -1.871,4.511l0,14.593c0,0.463 0.185,0.927 0.539,1.281c0.358,0.36 0.821,0.54 1.289,0.54zm26.614,-26.971c2.308,0 4.178,1.87 4.178,4.176c0,2.305 -1.87,4.176 -4.178,4.176c-2.306,0 -4.174,-1.871 -4.174,-4.176c0,-2.306 1.868,-4.176 4.174,-4.176z"/>
 </g>
</svg>