<svg width="612" height="612" xmlns="http://www.w3.org/2000/svg">

 <g>
  <title>background</title>
  <rect fill="none" id="canvas_background" height="402" width="582" y="-1" x="-1"/>
 </g>
 <g>
  <title>Layer 1</title>
  <path fill="#004d6f" stroke="#ffffff" stroke-width="3.408" id="path1459" d="m82.349999,17.338556c-41.335,0 -64.571,21.371 -64.571,65.036l0,450.122c0,40.843 20.891,62.228 62.192,62.228l452.024,0c41.303,0 62.226,-20.32 62.226,-62.228l0,-450.122c0,-42.6 -20.923,-65.036 -63.523,-65.036c0,0 -448.491,-0.142 -448.348,0z"/>
  <path fill="none" stroke="#ffffff" stroke-width="42" id="path1463" d="m508.340002,305.817554l0,-178.901l-403.68,0l0,178.901l403.68,0z"/>
  <path fill="#ffffff" stroke="#ffffff" stroke-width="1.859" id="path1477" d="m308.802999,274.209556c31.436,0 56.922,-25.486 56.922,-56.922c0,-31.436 -25.486,-56.922 -56.922,-56.922c-31.436,0 -56.922,25.486 -56.922,56.922c0,31.436 25.486,56.922 56.922,56.922z"/>
  <path fill="#004d6f" id="path1483" d="m277.087999,227.124556l14.865,0c0.941,4.289 2.179,9.476 8.95,11.401l-0.018,-16.849c-9.273,-1.333 -22.65,-5.399 -22.65,-20.312c0,-16.764 18.547,-21.991 22.668,-21.991l0,-10.137l13.98,0l0,10.137c9.427,0.546 23.109,8.426 23.109,23.406l-14.719,0c-0.374,-4.447 -3.821,-8.816 -8.243,-9.128l0,15.448c11.238,1.153 24.434,5.442 24.434,20.542c0,13.185 -13.247,22.801 -24.434,23.393l0,10.162l-14.127,0l0,-10.31c-8.095,-1.184 -22.896,-8.989 -23.815,-25.762z"/>
  <path fill="#ffffff" id="path1485" d="m300.975999,193.804556l0,12.799c-9.963,-0.156 -10.157,-11.023 0,-12.799z"/>
  <path fill="#ffffff" id="path1489" d="m315.193999,224.079556c12.328,0.312 13.7,12.561 -0.014,14.52"/>
  <path fill="#ffffff" id="path1491" d="m315.179999,238.599556l0.014,-14.52"/>
  <path fill="#ffffff" stroke="#ffffff" stroke-width="1.859" id="path1497" d="m400.802999,373.709556c31.436,0 56.922,-25.486 56.922,-56.922c0,-31.437 -25.486,-56.923 -56.922,-56.923c-31.437,0 -56.923,25.486 -56.923,56.923c0,31.436 25.486,56.922 56.923,56.922z"/>
  <path fill="#004d6f" id="path1501" d="m427.597999,339.035556l0,12.271l-52.718,0l0,-12.271c5.99,-4.012 9.106,-14.159 7.189,-19.588l-11.023,0l0,-12.506l8.865,0c-2.396,-5.663 -2.396,-7.551 -2.396,-12.507c0,-4.955 4.075,-21.113 25.4,-21.001c19.638,0.104 25.338,16.284 25.338,27.845l-14.95,0.009c-1,-7 -3.75,-12.75 -10.25,-12.75c-9.944,0 -9.961,6.251 -9.961,8.376c0,2.123 0.358,7.314 2.396,10.147l12.94,0l0,12.27l-10.544,0c1.317,11.21 -5.152,15.929 -5.512,19.705l35.226,0z"/>
  <path fill="#ffffff" stroke="#ffffff" stroke-width="1.859" id="path1507" d="m183.802999,456.209556c31.437,0 56.923,-25.486 56.923,-56.922c0,-31.437 -25.486,-56.923 -56.923,-56.923c-31.436,0 -56.922,25.486 -56.922,56.923c0,31.436 25.486,56.922 56.922,56.922z"/>
  <path fill="#004d6f" id="path1513" d="m189.518002,388.931554l14.378,0l0,7.189c3.116,-3.596 6.709,-7.43 14.377,-7.43l0,13.66c-11.72,1.437 -14.377,7.687 -14.377,15.437l0,17.152l-14.378,0l0,-46.008z"/>
  <path fill="#004d6f" id="path1515" d="m185.612002,388.931554l0,13.538l-10.221,0l0,32.47l-14.497,0l0,-32.35l-8.626,0l0,-13.539l8.626,0l0,-12.1c0,-4.673 4.552,-18.932 21.685,-18.932c17.492,0 21.224,13.769 21.224,25.281l-14.25,0c0,-7.387 -1,-11.263 -6.855,-11.263c-6.27,0 -7.307,4.313 -7.307,11.144l0,5.751l10.221,0z"/>
  <path fill="#ffffff" stroke="#ffffff" stroke-width="1.859" id="path1521" d="m362.802999,520.709556c31.436,0 56.922,-25.486 56.922,-56.922c0,-31.437 -25.486,-56.923 -56.922,-56.923c-31.437,0 -56.922,25.486 -56.922,56.923c0,31.436 25.485,56.922 56.922,56.922z"/>
  <path fill="#004d6f" id="path1525" d="m331.311002,429.378554l16.535,0l15.336,27.067l16.64,-27.067l15.229,0l-24.68,43.648l18.45,0l0,13.898l-17.732,0l0,19.508l-15.096,0l0,-19.508l-18.931,0l0,-13.655l19.17,0l-24.921,-43.891z"/>
 </g>
</svg>