<svg width="64" height="64" xmlns="http://www.w3.org/2000/svg">

 <g>
  <title>background</title>
  <rect fill="none" id="canvas_background" height="402" width="582" y="-1" x="-1"/>
 </g>
 <g>
  <title>Layer 1</title>
  <rect fill="#004d6f" stroke="#001721" id="svg_1" y="52" x="3" width="24" height="11"/>
  <path fill="#004d6f" stroke="#001721" id="svg_2" d="m4,39l0,7l12,0l0,-7c0,-1.657 -1.343,-3 -3,-3l-3,0l-3,0c-1.657,0 -3,1.343 -3,3z"/>
  <circle fill="#004d6f" stroke="#001721" id="svg_3" r="4" cy="32" cx="10"/>
  <polygon fill="#004d6f" stroke="#001721" id="svg_4" points="45.899,19.142 46,19.243 52.364,21.364 50.243,15 50.141,14.899 "/>
  <rect fill="#004d6f" stroke="#001721" id="svg_5" y="5.9" x="40" width="6" transform="matrix(0.7071,-0.7071,0.7071,0.7071,4.1091,33.9202) " height="12.199"/>
  <path fill="#004d6f" stroke="#001721" id="svg_6" d="m34.879,8.121l0.98,0.98l4.242,-4.243l-0.98,-0.98c-1.172,-1.172 -3.071,-1.172 -4.243,0s-1.171,3.072 0.001,4.243z"/>
  <rect fill="#004d6f" stroke="#001721" id="svg_7" y="43.25" x="19" width="7.875" height="2.25"/>
  <rect fill="#004d6f" stroke="#001721" id="svg_8" y="39.875" x="20.125" width="7.875" height="2.25"/>
  <rect fill="#004d6f" stroke="#001721" id="svg_9" y="36.5" x="19" width="7.875" height="2.25"/>
  <path fill="#004d6f" stroke="#001721" id="svg_10" d="m41,55c4.418,0 8,-3.582 8,-8s-3.582,-8 -8,-8s-8,3.582 -8,8s3.582,8 8,8zm-4.243,-10.828l1.414,-1.414l2.829,2.828l2.829,-2.828l1.414,1.414l-2.829,2.828l2.828,2.828l-1.414,1.414l-2.828,-2.828l-2.829,2.828l-1.414,-1.414l2.829,-2.828l-2.829,-2.828z"/>
  <rect fill="#004d6f" stroke="#001721" id="svg_11" y="4" x="29" width="2" height="2"/>
  <rect fill="#004d6f" stroke="#001721" id="svg_12" y="4" x="25" width="2" height="2"/>
  <rect fill="#004d6f" stroke="#001721" id="svg_13" y="4" x="21" width="2" height="2"/>
  <rect fill="#004d6f" stroke="#001721" id="svg_14" y="8" x="21" width="2" height="2"/>
  <rect fill="#004d6f" stroke="#001721" id="svg_15" y="12" x="21" width="2" height="2"/>
  <rect fill="#004d6f" stroke="#001721" id="svg_16" y="16" x="21" width="2" height="2"/>
  <rect fill="#004d6f" stroke="#001721" id="svg_17" y="20" x="21" width="2" height="2"/>
  <rect fill="#004d6f" stroke="#001721" id="svg_18" y="24" x="21" width="2" height="2"/>
  <rect fill="#004d6f" stroke="#001721" id="svg_19" y="28" x="21" width="2" height="2"/>
  <rect fill="#004d6f" stroke="#001721" id="svg_20" y="32" x="21" width="2" height="2"/>
  <rect fill="#004d6f" stroke="#001721" id="svg_21" y="47" x="2" width="26" height="4"/>
  <path fill="#004d6f" stroke="#001721" id="svg_22" d="m41,29l0,9c2.407,0 4.591,0.955 6.208,2.5l7.792,0l0,1l-6.892,0c0.686,0.885 1.212,1.898 1.531,3l5.361,0l0,1l-5.135,0c0.082,0.489 0.135,0.988 0.135,1.5c0,0.688 -0.085,1.356 -0.232,2l10.232,0c-1.654,0 -3,-1.346 -3,-3l0,-17l-16,0zm7,8l-4,0l0,-4l4,0l0,4zm7,0.5l-5,0l0,-1l5,0l0,1zm0,-4l-5,0l0,-1l5,0l0,1z"/>
  <path fill="#004d6f" stroke="#001721" id="svg_23" d="m62.5,46l0,-6.5l-5,0l0,6.5c0,1.38 1.12,2.5 2.5,2.5s2.5,-1.12 2.5,-2.5z"/>
 </g>
</svg>