<svg width="52.00000000000001" height="52.00000000000001" xmlns="http://www.w3.org/2000/svg">

 <g>
  <title>background</title>
  <rect fill="none" id="canvas_background" height="402" width="582" y="-1" x="-1"/>
 </g>
 <g>
  <title>Layer 1</title>
  <path fill="#004d6f" id="svg_3" d="m45.65192,16.64086c1.79629,1.63408 2.62069,1.78131 2.30268,4.14909c-0.26971,2.00805 -1.54689,2.7967 -2.90135,4.11508c-2.1364,2.07949 -4.2728,4.15899 -6.40921,6.23848c-2.27932,2.2186 -4.57857,5.00025 -7.63275,6.04615c-2.16783,0.74236 -4.17162,0.71695 -6.23617,1.82345c0.55087,0.42349 1.10174,0.84698 1.65262,1.27047c0.47031,-1.61902 0.50078,-3.33081 0.94149,-4.91936c1.07188,-3.86367 3.51543,-6.0208 6.18607,-8.76456c1.69597,-1.7424 9.80014,-12.18398 12.71519,-9.70413c1.09695,0.93318 2.69597,-0.65098 1.59099,-1.59099c-4.69407,-3.99327 -9.17171,2.79454 -12.15798,5.86257c-2.96295,3.04407 -6.70154,6.0249 -9.15689,9.49148c-1.88461,2.66078 -1.40343,5.98002 -2.2885,9.02685c-0.28283,0.97363 0.80909,1.72257 1.65262,1.27048c3.08493,-1.65337 6.52522,-1.2371 9.37366,-3.45027c3.62466,-2.81629 6.78826,-6.55982 10.07801,-9.76193c1.80736,-1.75922 5.24331,-3.98812 5.74196,-6.68021c0.49804,-2.68883 -2.12058,-4.42998 -3.86146,-6.01364c-1.06911,-0.97257 -2.66487,0.61408 -1.59098,1.59099l0,0z" class="st0"/>
  <path fill="#004d6f" id="svg_5" d="m39.52582,20.29352c1.20731,0.34934 2.22804,1.84123 3.08027,2.70907c0.88799,0.90426 1.6555,1.61194 2.36796,2.66836c0.80533,1.19413 2.75543,0.06932 1.94281,-1.13562c-0.43258,-0.64141 -0.78639,-1.41172 -1.3756,-1.91596c-0.62899,-0.53829 -1.22419,-1.08558 -1.81061,-1.68275c-1.07751,-1.09725 -2.0771,-2.37014 -3.60669,-2.81272c-1.39358,-0.40323 -1.98863,1.76729 -0.59814,2.16962l0,0z" class="st0"/>
  <path fill="#004d6f" id="svg_7" d="m25.17209,38.83536c-5.47226,0.05165 -10.94452,0.1033 -16.41678,0.15495c-1.44705,0.01366 -1.45063,2.26369 0,2.25c5.47226,-0.05165 10.94452,-0.1033 16.41678,-0.15495c1.44705,-0.01366 1.45062,-2.2637 0,-2.25l0,0z" class="st0"/>
  <path fill="#004d6f" id="svg_9" d="m8.33893,33.60372c5.55555,0 11.11111,0 16.66666,0c1.44777,0 1.45017,-2.25 0,-2.25c-5.55555,0 -11.11111,0 -16.66666,0c-1.44777,0 -1.45017,2.25 0,2.25l0,0z" class="st0"/>
  <path fill="#004d6f" id="svg_11" d="m8.75559,26.18706c5.47222,0 10.94445,0 16.41667,0c1.44777,0 1.45016,-2.25 0,-2.25c-5.47222,0 -10.94445,0 -16.41667,0c-1.44776,0 -1.45016,2.25 0,2.25l0,0z" class="st0"/>
  <path fill="#004d6f" id="svg_13" d="m8.75559,18.77039c2.61111,0 5.22222,0 7.83334,0c1.44776,0 1.45016,-2.25 0,-2.25c-2.61112,0 -5.22223,0 -7.83334,0c-1.44776,0 -1.45016,2.25 0,2.25l0,0z" class="st0"/>
  <path fill="#004d6f" id="svg_15" d="m36.59689,33.80634c0.04508,2.83364 0.09016,5.66728 0.13524,8.50092c0.02003,1.2594 0.04007,2.51879 0.06011,3.77819c0.0302,1.89846 0.45617,2.26095 -1.07014,3.1059c-1.97629,1.09405 -6.51174,0.28888 -8.81456,0.28955c-2.88726,0.00085 -5.77453,-0.00488 -8.66177,-0.01671c-2.88724,-0.01184 -5.77446,-0.02978 -8.66162,-0.0543c-1.19923,-0.01019 -2.67787,0.205 -3.84952,-0.03645c-1.87177,-0.38573 -2.0689,0.26064 -2.30039,-2.05291c-0.57178,-5.71428 0.01161,-11.80663 0.01727,-17.55851c0.00544,-5.52767 0.01088,-11.05535 0.01631,-16.58303c0.00222,-2.24935 -0.84944,-6.76806 0.00864,-8.77925c1.09245,-2.5605 4.8731,-1.7548 7.12117,-1.77927c2.78102,-0.03027 5.56223,-0.0411 8.34339,-0.03477c3.88908,0.00885 5.8863,0.39381 9.05231,3.13548c1.79868,1.55761 3.51073,3.27675 5.14043,5.009c3.03746,3.22859 3.42747,5.09314 3.46477,9.33441c0.01273,1.44711 2.26276,1.4506 2.25,0c-0.02779,-3.15893 0.31915,-5.4935 -1.55463,-8.02708c-2.16523,-2.92768 -5.05468,-5.44836 -7.70958,-7.90732c-1.42043,-1.31559 -2.82866,-2.95988 -4.67599,-3.60112c-3.32125,-1.15286 -8.97292,-0.20381 -12.45666,-0.17588c-3.42972,0.02749 -9.86384,-1.7064 -11.22329,2.09561c-0.6295,1.76054 -0.00485,4.9312 -0.00672,6.8283c-0.00224,2.2761 -0.00448,4.55221 -0.00671,6.82831c-0.00416,4.22705 -0.00832,8.45409 -0.01248,12.68114s-0.00832,8.4541 -0.01247,12.68114c-0.00179,1.8134 -0.9461,7.45191 0.24738,9.02865c0.68162,0.9005 1.39377,0.8781 2.37252,1.10605c3.98952,0.92915 9.33211,0.08886 13.47345,0.10785c4.49126,0.02061 8.98259,0.02586 13.47387,0.01577c1.85927,-0.00417 5.77773,0.904 7.31971,-0.38401c1.33549,-1.11553 0.98254,-2.72752 0.98033,-4.312c-0.00616,-4.40695 -0.14027,-8.81736 -0.21037,-13.22366c-0.02301,-1.44641 -2.27308,-1.4508 -2.25,0l0,0z" class="st0"/>
  <path fill="#004d6f" id="svg_17" d="m23.60964,2.97879c0.01687,2.58775 0.03375,5.17549 0.05062,7.76324c0.00895,1.37187 -0.57486,4.16994 0.56806,5.22898c1.05024,0.97316 3.35293,0.46314 4.61757,0.46381c2.63661,0.00138 5.27323,0.00276 7.90984,0.00414c1.4478,0.00076 1.45014,-2.24924 0,-2.25c-1.86114,-0.00097 -3.72228,-0.00195 -5.58342,-0.00292c-0.93057,-0.00049 -1.86114,-0.00098 -2.79171,-0.00147c-0.25747,-0.00013 -2.63262,0.16979 -2.79171,-0.00146c0.15107,0.16263 0.32836,-2.36974 0.3277,-2.47068c-0.00633,-0.9704 -0.01266,-1.94081 -0.01898,-2.91121c-0.01266,-1.94081 -0.02532,-3.88162 -0.03797,-5.82243c-0.00944,-1.4473 -2.25946,-1.45051 -2.25,0l0,0z" class="st0"/>
 </g>
</svg>